<?xml version="1.0" encoding="iso-8859-1"?>
<!-- Uploaded to: SVG Repo, www.svgrepo.com, Generator: SVG Repo Mixer Tools -->
<svg fill="#000000" height="800px" width="800px" version="1.1" id="Layer_1" xmlns="http://www.w3.org/2000/svg" xmlns:xlink="http://www.w3.org/1999/xlink" 
	 viewBox="0 0 512 512" xml:space="preserve">
<g>
	<g>
		<path d="M460.8,12.8H51.2C22.972,12.8,0,35.772,0,64v307.2c0,28.228,22.972,51.2,51.2,51.2h127.821l-8.533,51.2H140.8
			c-7.074,0-12.8,5.726-12.8,12.8s5.726,12.8,12.8,12.8h230.4c7.074,0,12.8-5.726,12.8-12.8s-5.726-12.8-12.8-12.8h-29.696
			l-8.533-51.2H460.8c28.237,0,51.2-22.972,51.2-51.2V64C512,35.772,489.037,12.8,460.8,12.8z M196.446,473.6l8.533-51.2h102.05
			l8.525,51.2H196.446z M486.4,371.2c0,14.14-11.46,25.6-25.6,25.6H51.2c-14.14,0-25.6-11.46-25.6-25.6V320h460.8V371.2z
			 M486.4,294.4H25.6V64c0-14.14,11.46-25.6,25.6-25.6h409.6c14.14,0,25.6,11.46,25.6,25.6V294.4z"/>
	</g>
</g>
<g>
	<g>
		<path d="M294.4,345.6h-76.8c-7.074,0-12.8,5.726-12.8,12.8s5.726,12.8,12.8,12.8h76.8c7.074,0,12.8-5.726,12.8-12.8
			S301.474,345.6,294.4,345.6z"/>
	</g>
</g>
</svg>