<?xml version="1.0" ?><!-- Uploaded to: SVG Repo, www.svgrepo.com, Generator: SVG Repo Mixer Tools -->
<svg fill="#000000" width="800px" height="800px" viewBox="0 0 100 100" data-name="Layer 1" id="Layer_1" xmlns="http://www.w3.org/2000/svg"><title/><path d="M80,58.27H77.59V27.46a2,2,0,0,0-2-2H24.41a2,2,0,0,0-2,2V58.27H20a2,2,0,0,0-2,2v2.66A11.63,11.63,0,0,0,29.61,74.54H70.39A11.63,11.63,0,0,0,82,62.93V60.27A2,2,0,0,0,80,58.27ZM73.59,29.46V58.27H26.41V29.46Zm-30,32.81H56.42V64H43.58ZM78,62.93a7.61,7.61,0,0,1-7.61,7.61H29.61A7.61,7.61,0,0,1,22,62.93v-.66H39.58V66a2,2,0,0,0,2,2H58.42a2,2,0,0,0,2-2V62.27H78Z"/></svg>